<?xml version="1.0" encoding="utf-8"?>
<!-- Generator: Adobe Illustrator 16.0.0, SVG Export Plug-In . SVG Version: 6.00 Build 0)  -->
<!DOCTYPE svg PUBLIC "-//W3C//DTD SVG 1.1//EN" "http://www.w3.org/Graphics/SVG/1.1/DTD/svg11.dtd">
<svg version="1.1" id="Layer_1" xmlns="http://www.w3.org/2000/svg" xmlns:xlink="http://www.w3.org/1999/xlink" x="0px" y="0px"
	 width="612px" height="612px" viewBox="0 90 612 612" enable-background="new 0 90 612 612" xml:space="preserve">
<circle fill="#020202" cx="306" cy="396" r="306"/>
<path fill="#FFFFFF" d="M491.841,267.229c0-53.992-41.914-97.716-93.671-97.716c-42.026,0-77.562,28.827-89.439,68.571H159.106
	c-16.332,0-29.451,13.26-29.451,29.469v292.683c0,16.341,13.252,29.469,29.451,29.469h292.495c16.332,0,29.45-13.262,29.45-29.469
	V318.043C487.71,303.336,491.841,286.887,491.841,267.229z"/>
<path fill="#CCCCCC" d="M444.495,243.041H168.663c-15.4,0-27.772,12.498-27.772,27.772v275.833c0,15.4,12.498,27.771,27.772,27.771
	h275.832c15.4,0,27.772-12.497,27.772-27.771V270.813C472.268,255.413,459.896,243.041,444.495,243.041z"/>
<path fill="#828282" d="M185.556,318.3l47.989-76.025h-70.158c-15.909,0-28.819,12.91-28.819,28.819v43.685v7.825v127.795
	l52.553,38.079l100.801-162.875L185.556,318.3z"/>
<path fill="#5E5E5E" d="M458.882,244.361v29.732L301.615,544.158L134.439,451.05v104.845c0,15.909,12.909,28.818,28.818,28.818
	h284.802c15.909,0,28.818-12.909,28.818-28.818V270.963C476.877,258.966,469.443,248.665,458.882,244.361z"/>
<polygon fill="#FFFFFF" points="476.877,325.993 192.729,316.213 238.891,242.274 222.982,242.274 177.081,315.692 134.568,314.257 
	134.568,327.82 276.186,332.645 242.412,386.892 200.553,360.159 193.38,371.634 235.24,398.367 183.731,481.174 195.207,488.346 
	291.835,333.166 476.877,339.556 "/>
<path fill="#FFFFFF" d="M453.273,242.796L292.878,527.598l-158.31-89.327v31.037l145.139,81.762l-18.908,33.515h31.036
	l11.345-20.213l35.992,20.213h55.16l-77.851-43.817L474.66,259.879C471.01,251.012,462.924,244.492,453.273,242.796z"/>
<path fill="#FF5757" d="M398.134,173.374c-49.544,0-89.667,42.361-89.667,94.673c0,74.183,59.716,101.175,89.667,164.521
	c29.953-63.346,89.668-90.438,89.668-164.521C487.802,215.735,447.679,173.374,398.134,173.374z"/>
<circle fill="#FFFFFF" cx="399.419" cy="260.985" r="46.029"/>
</svg>
