<?xml version="1.0" encoding="utf-8"?>
<!-- Generator: Adobe Illustrator 16.0.0, SVG Export Plug-In . SVG Version: 6.00 Build 0)  -->
<!DOCTYPE svg PUBLIC "-//W3C//DTD SVG 1.1//EN" "http://www.w3.org/Graphics/SVG/1.1/DTD/svg11.dtd">
<svg version="1.1" id="Layer_1" xmlns="http://www.w3.org/2000/svg" xmlns:xlink="http://www.w3.org/1999/xlink" x="0px" y="0px"
	 width="612px" height="612px" viewBox="0 90 612 612" enable-background="new 0 90 612 612" xml:space="preserve">
<circle fill="#020202" cx="307" cy="396" r="277.5"/>
<path fill="#FFFFFF" d="M475.533,279.222c0-48.963-38.012-88.615-84.947-88.615c-38.113,0-70.339,26.143-81.109,62.185H173.787
	c-14.811,0-26.708,12.025-26.708,26.725v265.423c0,14.818,12.018,26.725,26.708,26.725h265.252
	c14.813,0,26.708-12.026,26.708-26.725V325.304C471.786,311.967,475.533,297.05,475.533,279.222z"/>
<path fill="#CCCCCC" d="M432.597,257.287H182.454c-13.966,0-25.185,11.333-25.185,25.186v250.143
	c0,13.966,11.333,25.185,25.185,25.185h250.143c13.966,0,25.186-11.334,25.186-25.185V282.473
	C457.782,268.506,446.563,257.287,432.597,257.287z"/>
<path fill="#828282" d="M197.774,325.536l43.519-68.944H177.67c-14.427,0-26.135,11.708-26.135,26.136v39.616v7.096v115.892
	l47.658,34.532l91.413-147.706L197.774,325.536z"/>
<path fill="#5E5E5E" d="M445.643,258.484v26.963l-142.62,244.911l-151.605-84.436v95.079c0,14.428,11.707,26.135,26.134,26.135
	h258.277c14.427,0,26.134-11.707,26.134-26.135V282.608C461.962,271.729,455.221,262.387,445.643,258.484z"/>
<polygon fill="#FFFFFF" points="461.962,332.514 204.279,323.644 246.141,256.592 231.714,256.592 190.088,323.172 151.535,321.871 
	151.535,334.17 279.963,338.545 249.334,387.74 211.374,363.497 204.87,373.904 242.83,398.146 196.119,473.24 206.525,479.744 
	294.154,339.018 461.962,344.813 "/>
<path fill="#FFFFFF" d="M440.557,257.065L295.101,515.341l-143.565-81.008v28.147l131.622,74.146l-17.147,30.393h28.145
	l10.289-18.33l32.64,18.33h50.022l-70.6-39.736l143.447-254.726C456.642,264.516,449.309,258.603,440.557,257.065z"/>
<path fill="#FF5757" d="M390.553,194.109c-44.93,0-81.315,38.416-81.315,85.855c0,67.273,54.154,91.752,81.315,149.199
	c27.163-57.447,81.316-82.015,81.316-149.199C471.869,232.525,435.482,194.109,390.553,194.109z"/>
<circle fill="#FFFFFF" cx="391.718" cy="273.56" r="41.742"/>
</svg>
