<?xml version="1.0" encoding="utf-8"?>
<!-- Generator: Adobe Illustrator 16.0.0, SVG Export Plug-In . SVG Version: 6.00 Build 0)  -->
<!DOCTYPE svg PUBLIC "-//W3C//DTD SVG 1.1//EN" "http://www.w3.org/Graphics/SVG/1.1/DTD/svg11.dtd">
<svg version="1.1" id="Layer_1" xmlns="http://www.w3.org/2000/svg" xmlns:xlink="http://www.w3.org/1999/xlink" x="0px" y="0px"
	 width="1044.45px" height="1041.997px" viewBox="-33.628 -213.63 1044.45 1041.997"
	 enable-background="new -33.628 -213.63 1044.45 1041.997" xml:space="preserve">
<circle fill="#FFFFFF" cx="488.597" cy="307.026" r="522.225"/>
<path fill="#081E34" d="M578.488,547.16c0,6.021-4.878,10.897-10.897,10.897h-155.23c-6.002,0-10.898-4.863-10.898-10.897v-94.407
	c0-6,4.879-10.896,10.898-10.896H567.59c6,0,10.897,4.879,10.897,10.896L578.488,547.16L578.488,547.16z"/>
<circle fill="#EBF0F2" cx="518.854" cy="499.968" r="40.483"/>
<path fill="#BDD0D6" d="M518.861,459.468c22.344,0,40.481,18.129,40.481,40.5c0,22.354-18.14,40.481-40.481,40.481"/>
<path fill="#EBF0F2" d="M463.604,481.642c0,1.698-1.381,3.077-3.063,3.077h-37.8c-1.728,0-3.106-1.381-3.106-3.077v-18.385
	c0-1.697,1.379-3.093,3.106-3.093h37.8c1.682,0,3.063,1.396,3.063,3.093V481.642z"/>
<path fill="#BDD0D6" d="M419.62,463.257c0-1.697,1.378-3.093,3.106-3.093h37.799c1.683,0,3.063,1.396,3.063,3.093v18.385
	c0,1.698-1.381,3.077-3.063,3.077"/>
<g>
	<path fill="#081E34" d="M497.312,446.19c0,4.063-3.289,7.336-7.336,7.336l0,0c-4.062,0-7.335-3.291-7.335-7.336v-30.313
		c0-4.062,3.289-7.334,7.335-7.334l0,0c4.063,0,7.336,3.29,7.336,7.334V446.19z"/>
	<path fill="#081E34" d="M513.951,442.159c0,4.353-3.516,7.896-7.88,7.896h-32.208c-4.351,0-7.896-3.531-7.896-7.896l0,0
		c0-4.35,3.531-7.895,7.896-7.895h32.208C510.435,434.278,513.951,437.812,513.951,442.159L513.951,442.159z"/>
</g>
<path fill="#0092FF" d="M539.854,374.412h-99.759c-3.473,7.728-8.382,16.519-14.188,25.097c-1.864,2.788-2.287,6.244-1.183,9.383
	c1.122,3.137,3.636,5.531,6.836,6.517c17.885,5.411,38.072,8.258,58.412,8.258c20.326,0,40.529-2.851,58.415-8.258
	c3.183-0.97,5.713-3.382,6.835-6.517c1.105-3.139,0.667-6.608-1.183-9.383C548.234,390.931,543.323,382.14,539.854,374.412z"/>
<ellipse fill="#093568" cx="489.972" cy="221.985" rx="192.531" ry="80.6"/>
<path fill="#041D35" d="M682.507,221.981c0,44.529-86.212,80.603-192.534,80.603c-106.323,0-192.532-36.089-192.532-80.603"/>
<path fill="#093568" d="M420.058,203.81c0,29.571-23.933,53.548-53.548,53.548c-29.523,0-241.682-23.977-241.682-53.548
	c0-29.539,212.159-53.516,241.682-53.516C396.127,150.294,420.058,174.271,420.058,203.81z"/>
<path fill="#074584" d="M366.51,150.294c29.617,0,53.548,23.977,53.548,53.516"/>
<g>
	<path fill="#041D35" d="M420.058,203.81c0,29.571,34.45,92.483,4.881,92.483c-29.57,0-300.127-62.898-300.127-92.483"/>
	<path fill="#041D35" d="M178.162,216.39c0,17.052-13.808,30.843-30.83,30.843l0,0c-17.051,0-30.782-13.792-30.782-30.843v-27.585
		c0-17.021,13.73-30.813,30.783-30.813l0,0c17.021,0,30.83,13.793,30.83,30.813L178.162,216.39L178.162,216.39z"/>
</g>
<path fill="#093568" d="M178.162,185.987c0,17.021-13.808,30.813-30.83,30.813l0,0c-17.051,0.001-30.782-13.792-30.782-30.813
	v-27.585c0-17.021,13.73-30.843,30.783-30.843l0,0c17.021,0,30.83,13.822,30.83,30.843L178.162,185.987L178.162,185.987z"/>
<path fill="#041D35" d="M117.49,158.401c3.26,13.503,15.337,23.538,29.843,23.538c14.505,0,26.57-10.035,29.86-23.539
	c-3.289-13.474-15.354-23.539-29.86-23.539C132.829,134.864,120.75,144.927,117.49,158.401z"/>
<ellipse fill="#00B1FF" cx="147.319" cy="133.859" rx="142.349" ry="22.522"/>
<ellipse fill="#0092FF" cx="147.333" cy="133.859" rx="79.084" ry="22.522"/>
<path fill="#00CFFF" d="M288.773,133.862c0,2.197-1.744,3.94-3.956,3.94H9.822c-2.167,0-3.926-1.744-3.926-3.94l0,0
	c0-2.196,1.758-3.972,3.926-3.972H284.82C287.016,129.892,288.773,131.666,288.773,133.862L288.773,133.862z"/>
<path fill="#041D35" d="M178.676,106.506c0,9.034,12.11,16.399,3.002,16.399h-68.72c-9.063,0,3.031-7.365,3.031-16.399l0,0
	c0-9.125,7.365-16.459,16.43-16.459h29.797C171.295,90.046,178.676,97.381,178.676,106.506L178.676,106.506z"/>
<path fill="#093568" d="M559.892,203.81c0,29.571,23.946,53.548,53.53,53.548c29.54,0,241.698-23.977,241.698-53.548
	c0-29.539-212.158-53.516-241.698-53.516C583.838,150.294,559.892,174.271,559.892,203.81z"/>
<path fill="#074584" d="M613.439,150.294c-29.587,0-53.532,23.977-53.532,53.516"/>
<g>
	<path fill="#041D35" d="M559.892,203.81c0,29.571-34.45,92.483-4.88,92.483c29.569,0,300.124-62.898,300.124-92.483"/>
	<path fill="#041D35" d="M801.786,216.39c0,17.052,13.808,30.843,30.827,30.843l0,0c17.036,0,30.801-13.792,30.801-30.843v-27.585
		c0-17.021-13.765-30.813-30.801-30.813l0,0c-17.021,0-30.827,13.793-30.827,30.813V216.39L801.786,216.39z"/>
</g>
<path fill="#093568" d="M801.786,185.987c0,17.021,13.808,30.813,30.827,30.813l0,0c17.036,0,30.801-13.793,30.801-30.813v-27.585
	c0-17.021-13.765-30.843-30.801-30.843l0,0c-17.021,0-30.827,13.822-30.827,30.843V185.987L801.786,185.987z"/>
<path fill="#041D35" d="M862.459,158.401c-3.261,13.503-15.354,23.539-29.845,23.539c-14.503,0-26.582-10.035-29.872-23.539
	c3.288-13.474,15.368-23.539,29.872-23.539C847.104,134.864,859.198,144.927,862.459,158.401z"/>
<ellipse fill="#00B1FF" cx="832.606" cy="133.859" rx="142.363" ry="22.522"/>
<ellipse fill="#0092FF" cx="832.606" cy="133.859" rx="79.084" ry="22.522"/>
<path fill="#00CFFF" d="M691.178,133.862c0,2.197,1.742,3.94,3.956,3.94h274.997c2.166,0,3.926-1.744,3.926-3.94l0,0
	c0-2.196-1.759-3.972-3.926-3.972H695.134C692.934,129.892,691.178,131.666,691.178,133.862L691.178,133.862z"/>
<path fill="#041D35" d="M801.271,106.506c0,9.034-12.11,16.399-3.002,16.399h68.72c9.063,0-3.029-7.365-3.029-16.399l0,0
	c0-9.125-7.364-16.459-16.433-16.459h-29.798C808.669,90.046,801.271,97.381,801.271,106.506L801.271,106.506z"/>
<path fill="#081E34" d="M581.065,229.804h-29.371c-4.458,0-8.698,1.985-11.581,5.382c-4.107,4.851-22.901,12.048-50.151,12.048
	c-27.27,0-46.017-7.2-50.124-12.048c-2.896-3.41-7.124-5.382-11.595-5.382h-29.359c-8.382,0-15.157,6.775-15.157,15.158v31.056
	c0,3.849,1.487,7.578,4.108,10.398c5.79,6.123,13.809,8.671,21.553,11.126c14.824,4.684,16.431,6.606,16.431,12.111
	c0,12.338-11.702,38.391-28.508,63.325c-2.668,4-3.303,9.035-1.682,13.565c1.622,4.532,5.289,8.019,9.882,9.412
	c25.857,7.819,55.064,11.958,84.452,11.958c29.387,0,58.609-4.137,84.467-11.958c4.609-1.397,8.245-4.88,9.88-9.412
	c1.608-4.53,0.972-9.564-1.693-13.565c-16.779-24.935-28.496-50.972-28.496-63.325c0-5.502,1.607-7.427,16.398-12.111
	c7.76-2.455,15.779-5,21.568-11.126c2.638-2.817,4.106-6.547,4.106-10.398v-31.057C596.222,236.579,589.432,229.804,581.065,229.804
	z"/>
<g>
	<path fill="#0092FF" d="M520.907,167.569c0,1.576-1.273,2.85-2.85,2.85h-56.186c-1.576,0-2.851-1.274-2.851-2.85l0,0
		c0-1.577,1.273-2.849,2.851-2.849h56.186C519.637,164.736,520.907,166.01,520.907,167.569L520.907,167.569z"/>
	<path fill="#0092FF" d="M520.907,184.623c0,1.575-1.273,2.849-2.85,2.849h-56.186c-1.576,0-2.851-1.274-2.851-2.849l0,0
		c0-1.576,1.273-2.85,2.851-2.85h56.186C519.637,181.789,520.907,183.061,520.907,184.623L520.907,184.623z"/>
	<path fill="#0092FF" d="M520.907,201.672c0,1.575-1.273,2.85-2.85,2.85h-56.186c-1.576,0-2.851-1.274-2.851-2.85l0,0
		c0-1.576,1.273-2.85,2.851-2.85h56.186C519.637,198.838,520.907,200.11,520.907,201.672L520.907,201.672z"/>
</g>
<path fill="#00CFFF" d="M770.366,689.609H209.582c-11.158,0-20.204-9.045-20.204-20.204c0-246.103,77.904-257.915,148-353.014
	c5.54-9.684,17.881-13.046,27.571-7.508c9.686,5.539,13.047,17.883,7.508,27.571c-68.718,87.215-137.58,85.316-142.452,312.749
	h519.948c-4.869-227.476-71.631-225.533-142.451-312.747c-5.539-9.687-2.182-22.026,7.503-27.57
	c9.687-5.538,22.023-2.179,27.57,7.504c75.898,87.703,148,106.862,148,353.015C790.569,680.564,781.525,689.609,770.366,689.609z"/>
</svg>
