<?xml version="1.0" encoding="utf-8"?>
<!-- Generator: Adobe Illustrator 16.0.0, SVG Export Plug-In . SVG Version: 6.00 Build 0)  -->
<!DOCTYPE svg PUBLIC "-//W3C//DTD SVG 1.1//EN" "http://www.w3.org/Graphics/SVG/1.1/DTD/svg11.dtd">
<svg version="1.1" id="Layer_1" xmlns="http://www.w3.org/2000/svg" xmlns:xlink="http://www.w3.org/1999/xlink" x="0px" y="0px"
	 width="612px" height="1256.5px" viewBox="0 0 612 1256.5" enable-background="new 0 0 612 1256.5" xml:space="preserve">
<g>
	<path fill="#FFFFFF" stroke="#000000" stroke-width="2" stroke-miterlimit="10" d="M605.922,306
		C605.922,140.357,471.642,6.078,306,6.078C140.357,6.078,6.078,140.357,6.078,306c0,151.801,112.784,277.242,259.125,297.148
		L306,1244.5l0,0l40.799-641.352C493.138,583.241,605.922,457.801,605.922,306z"/>
	<circle fill="#FFFFFF" cx="306" cy="306" r="206.004"/>
	<path fill="#B2001E" d="M510.049,101.952C455.588,47.493,383.12,17.5,306,17.5v103.453c49.459,0,95.944,19.233,130.88,54.168
		c34.935,34.935,54.168,81.421,54.168,130.88s-19.233,95.944-54.168,130.88c-34.937,34.935-81.421,54.168-130.88,54.168V594.5
		c77.12,0,149.588-29.993,204.049-84.451C564.507,455.588,594.5,383.12,594.5,306S564.507,156.411,510.049,101.952z"/>
	<path fill="#006DF0" d="M387.597,306c0-44.995-36.603-81.596-81.597-81.596v163.192C350.994,387.597,387.597,350.994,387.597,306z"
		/>
	<path fill="#005DBA" d="M175.12,436.88c-34.935-34.937-54.168-81.421-54.168-130.88s19.233-95.945,54.168-130.88
		c34.935-34.935,81.421-54.168,130.88-54.168V17.5c-77.12,0-149.589,29.993-204.047,84.452C47.493,156.411,17.5,228.88,17.5,306
		s29.993,149.588,84.453,204.049C156.411,564.507,228.88,594.5,306,594.5V491.047C256.541,491.047,210.055,471.814,175.12,436.88z"
		/>
	<path fill="#FFFFFF" d="M120.952,306c0,49.459,19.233,95.944,54.168,130.88c34.935,34.935,81.421,54.167,130.88,54.167v-103.45
		c-44.995,0-81.596-36.603-81.596-81.597c0-44.995,36.602-81.596,81.596-81.596V120.953c-49.459,0-95.945,19.233-130.88,54.168
		C140.185,210.056,120.952,256.541,120.952,306z"/>
	<path fill="#FF001F" d="M224.404,306c0,44.994,36.602,81.597,81.596,81.597V224.404C261.005,224.404,224.404,261.005,224.404,306z"
		/>
</g>
<polygon fill="#FF0000" points="284.033,876.5 306,1221.826 327.968,876.5 "/>
</svg>
