<?xml version="1.0" encoding="utf-8"?>
<!-- Generator: Adobe Illustrator 16.0.0, SVG Export Plug-In . SVG Version: 6.00 Build 0)  -->
<!DOCTYPE svg PUBLIC "-//W3C//DTD SVG 1.1//EN" "http://www.w3.org/Graphics/SVG/1.1/DTD/svg11.dtd">
<svg version="1.1" id="Capa_1_1_" xmlns="http://www.w3.org/2000/svg" xmlns:xlink="http://www.w3.org/1999/xlink" x="0px" y="0px"
	 width="612px" height="612px" viewBox="0 0 612 612" enable-background="new 0 0 612 612" xml:space="preserve">
<g id="_x39_h_xA0_Image_1_">
	<path opacity="0.6" fill="#E8E8E8" enable-background="new    " d="M305.279,52.432c-148.52,0-268.92,114.74-268.92,256.285
		C36.359,450.258,156.76,565,305.279,565c148.521,0,268.924-114.742,268.924-256.283C574.2,167.172,453.801,52.432,305.279,52.432z
		 M305.914,498.851c-127.682,0-231.188-96.707-231.188-216c0-119.296,103.506-216,231.188-216s231.188,96.704,231.188,216
		C537.102,402.144,433.596,498.851,305.914,498.851z"/>
	<ellipse opacity="0.85" enable-background="new    " cx="305.914" cy="282.851" rx="231.188" ry="216"/>
	<polygon fill="#FFFFFF" points="193.624,238.321 239.427,238.638 236.221,263.95 349.114,204.719 248.033,155.444 245.839,174.344 
		205.83,174.501 218.502,108.251 433.151,204.101 171.252,355.301 	"/>
</g>
</svg>
