<?xml version="1.0" encoding="utf-8"?>
<!-- Generator: Adobe Illustrator 16.0.0, SVG Export Plug-In . SVG Version: 6.00 Build 0)  -->
<!DOCTYPE svg PUBLIC "-//W3C//DTD SVG 1.1//EN" "http://www.w3.org/Graphics/SVG/1.1/DTD/svg11.dtd">
<svg version="1.1" id="Capa_1_1_" xmlns="http://www.w3.org/2000/svg" xmlns:xlink="http://www.w3.org/1999/xlink" x="0px" y="0px"
	 width="612px" height="612px" viewBox="0 0 612 612" enable-background="new 0 0 612 612" xml:space="preserve">
<g id="_x31_2_xA0_Image_1_">
	<path opacity="0.6" fill="#E8E8E8" enable-background="new    " d="M305.279,16.32C136.733,16.32,0.1,146.531,0.1,307.16
		C0.1,467.787,136.733,598,305.279,598c168.547,0,305.184-130.213,305.184-290.84C610.46,146.531,473.826,16.32,305.279,16.32z
		 M306,522.931c-144.898,0-262.36-109.746-262.36-245.124C43.64,142.426,161.102,32.682,306,32.682s262.36,109.744,262.36,245.125
		C568.359,413.185,450.897,522.931,306,522.931z"/>
	
		<ellipse opacity="0.85" stroke="#000000" stroke-miterlimit="10" enable-background="new    " cx="306" cy="277.806" rx="262.36" ry="245.124"/>
	<polygon fill="#FFFFFF" points="306.382,140.436 384.006,245.124 351.833,245.124 357.451,299.255 490.226,299.255 306.382,77.111 
		126.113,299.255 259.464,299.255 262.72,244.868 231.696,244.677 	"/>
</g>
</svg>
