<?xml version="1.0" encoding="utf-8"?>
<!-- Generator: Adobe Illustrator 16.0.0, SVG Export Plug-In . SVG Version: 6.00 Build 0)  -->
<!DOCTYPE svg PUBLIC "-//W3C//DTD SVG 1.1//EN" "http://www.w3.org/Graphics/SVG/1.1/DTD/svg11.dtd">
<svg version="1.1" id="Capa_1_1_" xmlns="http://www.w3.org/2000/svg" xmlns:xlink="http://www.w3.org/1999/xlink" x="0px" y="0px"
	 width="612px" height="612px" viewBox="0 0 612 612" enable-background="new 0 0 612 612" xml:space="preserve">
<g id="_x37_h30">
	<path opacity="0.6" fill="#E8E8E8" enable-background="new    " d="M306.648,14C138.012,14,1.303,144.283,1.303,305
		c0,160.715,136.709,291,305.346,291C475.289,596,612,465.715,612,305C611.998,144.283,475.289,14,306.648,14z M307.369,520.889
		c-144.976,0-262.502-109.807-262.502-245.259c0-135.455,117.526-245.258,262.502-245.258
		c144.979,0,262.506,109.803,262.506,245.258C569.875,411.082,452.348,520.889,307.369,520.889z"/>
	
		<ellipse opacity="0.85" stroke="#000000" stroke-miterlimit="10" enable-background="new    " cx="307.369" cy="275.63" rx="262.506" ry="245.259"/>
	<polygon fill="#FFFFFF" points="256.402,122.151 329.021,184.808 295.107,225.237 278.054,208.184 248.93,338.86 377.691,306.097 
		353.549,282.911 393.785,241.907 506.26,339.437 199.495,394.811 	"/>
</g>
</svg>
