<?xml version="1.0" encoding="utf-8"?>
<!-- Generator: Adobe Illustrator 16.0.0, SVG Export Plug-In . SVG Version: 6.00 Build 0)  -->
<!DOCTYPE svg PUBLIC "-//W3C//DTD SVG 1.1//EN" "http://www.w3.org/Graphics/SVG/1.1/DTD/svg11.dtd">
<svg version="1.1" id="Layer_1" xmlns="http://www.w3.org/2000/svg" xmlns:xlink="http://www.w3.org/1999/xlink" x="0px" y="0px"
	 width="612px" height="1256.5px" viewBox="0 0 612 1256.5" enable-background="new 0 0 612 1256.5" xml:space="preserve">
<g>
	<path fill="#FFFFFF" stroke="#000000" stroke-width="2" stroke-miterlimit="10" d="M551.199,364.257
		c0-135.42-109.78-245.2-245.199-245.2c-135.42,0-245.199,109.779-245.199,245.2c0,124.104,92.205,226.658,211.845,242.933
		L306,1131.521l0,0l33.354-524.332C458.992,590.914,551.199,488.359,551.199,364.257z"/>
	<circle fill="#FFFFFF" cx="306" cy="364.257" r="168.417"/>
	<path fill="#B2001E" d="M472.818,197.438C428.295,152.916,369.048,128.395,306,128.395v84.578c40.435,0,78.438,15.724,107,44.285
		c28.561,28.561,44.284,66.565,44.284,107c0,40.436-15.725,78.438-44.284,106.999c-28.563,28.563-66.565,44.285-107,44.285v84.576
		c63.048,0,122.295-24.521,166.818-69.044c44.521-44.522,69.043-103.771,69.043-166.817
		C541.861,301.207,517.341,241.961,472.818,197.438z"/>
	<path fill="#02D107" d="M372.709,364.257c0-36.785-29.924-66.708-66.709-66.708v133.417
		C342.785,430.966,372.709,401.041,372.709,364.257z"/>
	<path fill="#005DBA" d="M199,471.257c-28.561-28.563-44.285-66.564-44.285-107c0-40.435,15.724-78.439,44.285-107
		s66.565-44.285,107-44.285v-84.577c-63.049,0-122.296,24.521-166.817,69.043C94.66,241.96,70.139,301.207,70.139,364.256
		c0,63.048,24.521,122.295,69.044,166.817c44.521,44.522,103.768,69.044,166.817,69.044V515.54
		C265.565,515.54,227.561,499.817,199,471.257z"/>
	<path fill="#FFFFFF" d="M154.715,364.257c0,40.436,15.724,78.438,44.285,107s66.565,44.283,107,44.283v-84.574
		c-36.785,0-66.708-29.925-66.708-66.709c0-36.785,29.923-66.708,66.708-66.708v-84.576c-40.435,0-78.439,15.724-107,44.285
		C170.439,285.818,154.715,323.822,154.715,364.257z"/>
	<path fill="#12F400" d="M239.292,364.257c0,36.784,29.923,66.709,66.708,66.709V297.549
		C269.215,297.549,239.292,327.472,239.292,364.257z"/>
</g>
<polygon fill="#FF0000" points="288.041,830.664 306,1112.984 323.96,830.664 "/>
</svg>
