<?xml version="1.0" encoding="utf-8"?>
<!-- Generator: Adobe Illustrator 16.0.0, SVG Export Plug-In . SVG Version: 6.00 Build 0)  -->
<!DOCTYPE svg PUBLIC "-//W3C//DTD SVG 1.1//EN" "http://www.w3.org/Graphics/SVG/1.1/DTD/svg11.dtd">
<svg version="1.1" id="Capa_1_1_" xmlns="http://www.w3.org/2000/svg" xmlns:xlink="http://www.w3.org/1999/xlink" x="0px" y="0px"
	 width="612px" height="612px" viewBox="0 0 612 612" enable-background="new 0 0 612 612" xml:space="preserve">
<g id="_x31_2_xA0_Image_1_">
	<path opacity="0.6" fill="#E8E8E8" enable-background="new    " d="M305.279,51.716c-148.52,0-268.92,114.74-268.92,256.285
		c0,141.541,120.4,256.283,268.92,256.283c148.521,0,268.924-114.742,268.924-256.283C574.2,166.456,453.801,51.716,305.279,51.716z
		 M305.914,498.135c-127.682,0-231.188-96.707-231.188-216c0-119.296,103.506-216,231.188-216c127.682,0,231.188,96.704,231.188,216
		C537.102,401.428,433.596,498.135,305.914,498.135z"/>
	
		<ellipse opacity="0.85" stroke="#000000" stroke-miterlimit="10" enable-background="new    " cx="305.914" cy="282.135" rx="231.188" ry="216"/>
	<polygon fill="#FFFFFF" points="306.252,315.233 374.652,222.983 346.302,222.983 351.253,175.284 468.252,175.284 
		306.252,371.034 147.401,175.284 264.908,175.284 267.776,223.209 240.439,223.378 	"/>
</g>
</svg>
