<?xml version="1.0" encoding="utf-8"?>
<!-- Generator: Adobe Illustrator 16.0.0, SVG Export Plug-In . SVG Version: 6.00 Build 0)  -->
<!DOCTYPE svg PUBLIC "-//W3C//DTD SVG 1.1//EN" "http://www.w3.org/Graphics/SVG/1.1/DTD/svg11.dtd">
<svg version="1.1" id="Capa_1_1_" xmlns="http://www.w3.org/2000/svg" xmlns:xlink="http://www.w3.org/1999/xlink" x="0px" y="0px"
	 width="612px" height="612px" viewBox="0 0 612 612" enable-background="new 0 0 612 612" xml:space="preserve">
<g id="_x34_h30">
	<path opacity="0.6" fill="#E8E8E8" enable-background="new    " d="M305.279,51.432c-148.52,0-268.92,114.74-268.92,256.285
		C36.359,449.258,156.76,564,305.279,564c148.521,0,268.924-114.742,268.924-256.283C574.2,166.172,453.801,51.432,305.279,51.432z
		 M305.914,497.851c-127.682,0-231.188-96.707-231.188-216c0-119.296,103.506-216,231.188-216s231.188,96.704,231.188,216
		C537.102,401.144,433.596,497.851,305.914,497.851z"/>
	
		<ellipse opacity="0.85" stroke="#000000" stroke-miterlimit="10" enable-background="new    " cx="305.914" cy="281.851" rx="231.188" ry="216"/>
	<polygon fill="#FFFFFF" points="418.808,146.682 354.852,201.862 384.721,237.469 399.739,222.45 425.39,337.538 311.989,308.682 
		333.252,288.263 297.814,252.15 198.758,338.044 468.927,386.813 	"/>
</g>
</svg>
