<?xml version="1.0" encoding="utf-8"?>
<!-- Generator: Adobe Illustrator 16.0.0, SVG Export Plug-In . SVG Version: 6.00 Build 0)  -->
<!DOCTYPE svg PUBLIC "-//W3C//DTD SVG 1.1//EN" "http://www.w3.org/Graphics/SVG/1.1/DTD/svg11.dtd">
<svg version="1.1" id="Layer_1" xmlns="http://www.w3.org/2000/svg" xmlns:xlink="http://www.w3.org/1999/xlink" x="0px" y="0px"
	 width="1044.45px" height="1041.997px" viewBox="-33.628 -213.63 1044.45 1041.997"
	 enable-background="new -33.628 -213.63 1044.45 1041.997" xml:space="preserve">
<circle fill="#FFFFFF" cx="488.597" cy="307.026" r="423.093"/>
<path fill="#081E34" d="M561.425,501.576c0,4.878-3.952,8.829-8.829,8.829H426.833c-4.863,0-8.829-3.94-8.829-8.829V425.09
	c0-4.861,3.953-8.828,8.829-8.828h125.762c4.861,0,8.829,3.953,8.829,8.828L561.425,501.576L561.425,501.576z"/>
<circle fill="#EBF0F2" cx="513.11" cy="463.343" r="32.798"/>
<path fill="#BDD0D6" d="M513.116,430.53c18.103,0,32.797,14.688,32.797,32.813c0,18.109-14.696,32.797-32.797,32.797"/>
<path fill="#EBF0F2" d="M468.349,448.495c0,1.376-1.119,2.493-2.481,2.493h-30.625c-1.4,0-2.516-1.119-2.516-2.493V433.6
	c0-1.375,1.117-2.505,2.516-2.505h30.625c1.362,0,2.481,1.13,2.481,2.505V448.495z"/>
<path fill="#BDD0D6" d="M432.713,433.6c0-1.375,1.116-2.505,2.516-2.505h30.624c1.363,0,2.482,1.13,2.482,2.505v14.896
	c0,1.376-1.119,2.493-2.482,2.493"/>
<g>
	<path fill="#081E34" d="M495.657,419.773c0,3.291-2.665,5.943-5.943,5.943l0,0c-3.291,0-5.942-2.666-5.942-5.943v-24.56
		c0-3.29,2.665-5.941,5.942-5.941l0,0c3.292,0,5.943,2.665,5.943,5.941V419.773z"/>
	<path fill="#081E34" d="M509.139,416.507c0,3.526-2.849,6.398-6.385,6.398H476.66c-3.525,0-6.396-2.861-6.396-6.398l0,0
		c0-3.523,2.861-6.396,6.396-6.396h26.094C506.289,410.122,509.139,412.985,509.139,416.507L509.139,416.507z"/>
</g>
<path fill="#0092FF" d="M530.124,361.62h-80.822c-2.813,6.261-6.791,13.383-11.495,20.333c-1.51,2.259-1.853,5.059-0.958,7.602
	c0.909,2.541,2.946,4.481,5.538,5.279c14.49,4.384,30.845,6.69,47.324,6.69c16.468,0,32.836-2.31,47.326-6.69
	c2.578-0.785,4.629-2.739,5.537-5.279c0.896-2.543,0.541-5.354-0.958-7.602C536.914,375.003,532.935,367.881,530.124,361.62z"/>
<ellipse fill="#093568" cx="489.711" cy="238.128" rx="155.983" ry="65.3"/>
<path fill="#041D35" d="M645.697,238.125c0,36.076-69.846,65.303-155.985,65.303c-86.14,0-155.984-29.238-155.984-65.303"/>
<path fill="#093568" d="M433.068,223.403c0,23.958-19.39,43.383-43.383,43.383c-23.918,0-195.805-19.426-195.805-43.383
	c0-23.932,171.886-43.357,195.805-43.357C413.68,180.045,433.068,199.471,433.068,223.403z"/>
<path fill="#074584" d="M389.685,180.045c23.995,0,43.383,19.426,43.383,43.357"/>
<g>
	<path fill="#041D35" d="M433.068,223.403c0,23.958,27.911,74.927,3.955,74.927c-23.957,0-243.155-50.958-243.155-74.927"/>
	<path fill="#041D35" d="M237.09,233.595c0,13.815-11.187,24.988-24.978,24.988l0,0c-13.814,0-24.939-11.174-24.939-24.988v-22.348
		c0-13.79,11.124-24.964,24.939-24.964l0,0c13.79,0,24.978,11.175,24.978,24.964L237.09,233.595L237.09,233.595z"/>
</g>
<path fill="#093568" d="M237.09,208.963c0,13.79-11.187,24.964-24.978,24.964l0,0c-13.814,0.001-24.939-11.174-24.939-24.964
	v-22.349c0-13.79,11.124-24.988,24.939-24.988l0,0c13.79,0,24.978,11.198,24.978,24.988L237.09,208.963L237.09,208.963z"/>
<path fill="#041D35" d="M187.936,186.614c2.641,10.939,12.426,19.07,24.178,19.07s21.527-8.13,24.192-19.071
	c-2.665-10.917-12.439-19.071-24.192-19.071C200.363,167.545,190.577,175.697,187.936,186.614z"/>
<ellipse fill="#00B1FF" cx="212.103" cy="166.73" rx="115.327" ry="18.247"/>
<ellipse fill="#0092FF" cx="212.113" cy="166.73" rx="64.072" ry="18.247"/>
<path fill="#00CFFF" d="M326.705,166.732c0,1.78-1.413,3.192-3.205,3.192H100.706c-1.755,0-3.181-1.413-3.181-3.192l0,0
	c0-1.779,1.424-3.217,3.181-3.217h222.796C325.281,163.517,326.705,164.954,326.705,166.732L326.705,166.732z"/>
<path fill="#041D35" d="M237.507,144.569c0,7.319,9.811,13.287,2.432,13.287h-55.675c-7.343,0,2.456-5.967,2.456-13.287l0,0
	c0-7.393,5.966-13.334,13.311-13.334h24.141C231.527,131.234,237.507,137.177,237.507,144.569L237.507,144.569z"/>
<path fill="#093568" d="M546.358,223.403c0,23.958,19.4,43.383,43.368,43.383c23.933,0,195.818-19.426,195.818-43.383
	c0-23.932-171.886-43.357-195.818-43.357C565.759,180.045,546.358,199.471,546.358,223.403z"/>
<path fill="#074584" d="M589.741,180.045c-23.971,0-43.37,19.426-43.37,43.357"/>
<g>
	<path fill="#041D35" d="M546.358,223.403c0,23.958-27.911,74.927-3.954,74.927s243.153-50.958,243.153-74.927"/>
	<path fill="#041D35" d="M742.335,233.595c0,13.815,11.187,24.988,24.976,24.988l0,0c13.802,0,24.953-11.174,24.953-24.988v-22.348
		c0-13.79-11.151-24.964-24.953-24.964l0,0c-13.79,0-24.976,11.175-24.976,24.964V233.595L742.335,233.595z"/>
</g>
<path fill="#093568" d="M742.335,208.963c0,13.79,11.187,24.964,24.976,24.964l0,0c13.802,0,24.953-11.175,24.953-24.964v-22.349
	c0-13.79-11.151-24.988-24.953-24.988l0,0c-13.79,0-24.976,11.198-24.976,24.988V208.963L742.335,208.963z"/>
<path fill="#041D35" d="M791.49,186.614c-2.642,10.939-12.439,19.071-24.18,19.071c-11.75,0-21.536-8.13-24.201-19.071
	c2.664-10.917,12.451-19.071,24.201-19.071C779.051,167.545,788.849,175.697,791.49,186.614z"/>
<ellipse fill="#00B1FF" cx="767.305" cy="166.73" rx="115.339" ry="18.247"/>
<ellipse fill="#0092FF" cx="767.305" cy="166.73" rx="64.071" ry="18.247"/>
<path fill="#00CFFF" d="M652.723,166.732c0,1.78,1.411,3.192,3.205,3.192h222.796c1.755,0,3.181-1.413,3.181-3.192l0,0
	c0-1.779-1.426-3.217-3.181-3.217H655.928C654.146,163.517,652.723,164.954,652.723,166.732L652.723,166.732z"/>
<path fill="#041D35" d="M741.918,144.569c0,7.319-9.812,13.287-2.433,13.287h55.675c7.344,0-2.454-5.967-2.454-13.287l0,0
	c0-7.393-5.966-13.334-13.313-13.334h-24.142C747.911,131.234,741.918,137.177,741.918,144.569L741.918,144.569z"/>
<path fill="#081E34" d="M563.513,244.463h-23.796c-3.611,0-7.047,1.608-9.383,4.36c-3.327,3.93-18.554,9.761-40.631,9.761
	c-22.093,0-37.282-5.833-40.609-9.761c-2.346-2.763-5.772-4.36-9.394-4.36h-23.786c-6.791,0-12.28,5.489-12.28,12.28v25.161
	c0,3.119,1.205,6.14,3.329,8.424c4.69,4.961,11.187,7.025,17.461,9.014c12.01,3.795,13.312,5.352,13.312,9.812
	c0,9.997-9.481,31.104-23.097,51.305c-2.162,3.241-2.676,7.32-1.362,10.99c1.314,3.672,4.285,6.497,8.006,7.626
	c20.949,6.335,44.612,9.688,68.421,9.688c23.808,0,47.483-3.352,68.433-9.688c3.734-1.132,6.68-3.954,8.004-7.626
	c1.304-3.67,0.787-7.748-1.372-10.99c-13.594-20.202-23.086-41.296-23.086-51.305c0-4.458,1.302-6.017,13.285-9.812
	c6.287-1.989,12.784-4.051,17.474-9.014c2.138-2.282,3.327-5.304,3.327-8.424v-25.162
	C575.792,249.952,570.291,244.463,563.513,244.463z"/>
<g>
	<path fill="#0092FF" d="M514.774,194.041c0,1.277-1.032,2.31-2.31,2.31h-45.52c-1.277,0-2.31-1.032-2.31-2.31l0,0
		c0-1.277,1.032-2.308,2.31-2.308h45.52C513.744,191.746,514.774,192.778,514.774,194.041L514.774,194.041z"/>
	<path fill="#0092FF" d="M514.774,207.858c0,1.276-1.032,2.308-2.31,2.308h-45.52c-1.277,0-2.31-1.032-2.31-2.308l0,0
		c0-1.277,1.032-2.31,2.31-2.31h45.52C513.744,205.562,514.774,206.593,514.774,207.858L514.774,207.858z"/>
	<path fill="#0092FF" d="M514.774,221.671c0,1.276-1.032,2.309-2.31,2.309h-45.52c-1.277,0-2.31-1.032-2.31-2.309l0,0
		c0-1.277,1.032-2.309,2.31-2.309h45.52C513.744,219.375,514.774,220.405,514.774,221.671L514.774,221.671z"/>
</g>
<path fill="#00CFFF" d="M716.879,616.985H262.546c-9.04,0-16.368-7.328-16.368-16.369c0-199.386,63.115-208.956,119.905-286.003
	c4.488-7.846,14.487-10.57,22.337-6.083c7.847,4.487,10.57,14.488,6.083,22.337c-55.673,70.66-111.463,69.122-115.411,253.381
	h421.249c-3.944-184.295-58.033-182.722-115.41-253.38c-4.487-7.848-1.768-17.845,6.079-22.336
	c7.848-4.487,17.843-1.765,22.336,6.08c61.491,71.055,119.906,86.577,119.906,286.004
	C733.247,609.657,725.92,616.985,716.879,616.985z"/>
</svg>
