<?xml version="1.0" encoding="utf-8"?>
<!-- Generator: Adobe Illustrator 16.0.0, SVG Export Plug-In . SVG Version: 6.00 Build 0)  -->
<!DOCTYPE svg PUBLIC "-//W3C//DTD SVG 1.1//EN" "http://www.w3.org/Graphics/SVG/1.1/DTD/svg11.dtd">
<svg version="1.1" id="Capa_1_1_" xmlns="http://www.w3.org/2000/svg" xmlns:xlink="http://www.w3.org/1999/xlink" x="0px" y="0px"
	 width="612px" height="612px" viewBox="0 0 612 612" enable-background="new 0 0 612 612" xml:space="preserve">
<g id="_x31_0h30">
	<path opacity="0.6" fill="#E8E8E8" enable-background="new    " d="M305.279,20.188C137.275,20.188,1.08,149.981,1.08,310.095
		C1.08,470.205,137.275,600,305.279,600c168.006,0,304.204-129.795,304.204-289.905C609.479,149.981,473.285,20.188,305.279,20.188z
		 M305.997,525.172c-144.432,0-261.517-109.394-261.517-244.337c0-134.946,117.084-244.336,261.517-244.336
		c144.433,0,261.517,109.391,261.517,244.336C567.514,415.778,450.43,525.172,305.997,525.172z"/>
	
		<ellipse opacity="0.85" stroke="#000000" stroke-miterlimit="10" enable-background="new    " cx="305.997" cy="280.835" rx="261.517" ry="244.337"/>
	<polygon fill="#FFFFFF" points="159.013,167.639 221.434,239.985 261.711,206.198 244.722,189.209 374.907,160.194 
		342.266,288.471 319.168,264.419 278.318,304.506 375.48,416.557 430.647,110.945 	"/>
</g>
</svg>
