<?xml version="1.0" encoding="utf-8"?>
<!-- Generator: Adobe Illustrator 16.0.0, SVG Export Plug-In . SVG Version: 6.00 Build 0)  -->
<!DOCTYPE svg PUBLIC "-//W3C//DTD SVG 1.1//EN" "http://www.w3.org/Graphics/SVG/1.1/DTD/svg11.dtd">
<svg version="1.1" id="Layer_1" xmlns="http://www.w3.org/2000/svg" xmlns:xlink="http://www.w3.org/1999/xlink" x="0px" y="0px"
	 width="612px" height="612px" viewBox="0 90 612 612" enable-background="new 0 90 612 612" xml:space="preserve">
<g>
	<circle fill="#FFFFFF" cx="306" cy="396" r="218.5"/>
	<path fill="#B2001E" d="M522.426,179.575C464.662,121.812,387.798,90,306,90v109.728c52.459,0,101.765,20.4,138.819,57.454
		c37.054,37.054,57.453,86.36,57.453,138.819s-20.399,101.765-57.453,138.819c-37.055,37.054-86.36,57.453-138.819,57.453V702
		c81.798,0,158.662-31.812,216.426-89.574C580.188,554.662,612,477.798,612,396S580.188,237.337,522.426,179.575z"/>
	<path fill="#006DF0" d="M392.546,396c0-47.724-38.822-86.545-86.546-86.545v173.091C353.724,482.546,392.546,443.724,392.546,396z"
		/>
	<path fill="#005DBA" d="M167.181,534.819c-37.054-37.055-57.454-86.36-57.454-138.819s20.4-101.765,57.454-138.819
		s86.36-57.454,138.819-57.454V90c-81.798,0-158.663,31.812-216.425,89.575C31.812,237.337,0,314.202,0,396
		s31.812,158.662,89.575,216.426C147.337,670.188,224.202,702,306,702V592.272C253.541,592.272,204.235,571.873,167.181,534.819z"/>
	<path fill="#FFFFFF" d="M109.727,396c0,52.459,20.4,101.765,57.454,138.819c37.054,37.054,86.36,57.453,138.819,57.453V482.546
		c-47.724,0-86.545-38.822-86.545-86.546s38.822-86.545,86.545-86.545V199.728c-52.459,0-101.765,20.4-138.819,57.454
		S109.727,343.541,109.727,396z"/>
	<path fill="#FF001F" d="M219.455,396c0,47.724,38.822,86.546,86.545,86.546V309.455C258.276,309.455,219.455,348.276,219.455,396z"
		/>
</g>
</svg>
