<?xml version="1.0" encoding="utf-8"?>
<!-- Generator: Adobe Illustrator 16.0.0, SVG Export Plug-In . SVG Version: 6.00 Build 0)  -->
<!DOCTYPE svg PUBLIC "-//W3C//DTD SVG 1.1//EN" "http://www.w3.org/Graphics/SVG/1.1/DTD/svg11.dtd">
<svg version="1.1" id="Capa_1_1_" xmlns="http://www.w3.org/2000/svg" xmlns:xlink="http://www.w3.org/1999/xlink" x="0px" y="0px"
	 width="612px" height="612px" viewBox="0 0 612 612" enable-background="new 0 0 612 612" xml:space="preserve">
<g id="_x37_h30">
	<path opacity="0.6" fill="#E8E8E8" enable-background="new    " d="M305.279,50.432c-148.52,0-268.92,114.74-268.92,256.285
		C36.359,448.258,156.76,563,305.279,563c148.521,0,268.924-114.742,268.924-256.283C574.2,165.172,453.801,50.432,305.279,50.432z
		 M305.914,496.851c-127.682,0-231.188-96.707-231.188-216c0-119.296,103.506-216,231.188-216s231.188,96.704,231.188,216
		C537.102,400.144,433.596,496.851,305.914,496.851z"/>
	
		<ellipse opacity="0.85" stroke="#000000" stroke-miterlimit="10" enable-background="new    " cx="305.914" cy="280.851" rx="231.188" ry="216"/>
	<polygon fill="#FFFFFF" points="261.026,145.682 324.983,200.862 295.114,236.469 280.096,221.45 254.445,336.538 367.846,307.682 
		346.583,287.263 382.021,251.15 481.077,337.044 210.908,385.813 	"/>
</g>
</svg>
