<?xml version="1.0" encoding="utf-8"?>
<!-- Generator: Adobe Illustrator 16.0.0, SVG Export Plug-In . SVG Version: 6.00 Build 0)  -->
<!DOCTYPE svg PUBLIC "-//W3C//DTD SVG 1.1//EN" "http://www.w3.org/Graphics/SVG/1.1/DTD/svg11.dtd">
<svg version="1.1" id="Capa_1_1_" xmlns="http://www.w3.org/2000/svg" xmlns:xlink="http://www.w3.org/1999/xlink" x="0px" y="0px"
	 width="612px" height="612px" viewBox="0 0 612 612" enable-background="new 0 0 612 612" xml:space="preserve">
<g id="_x31_0h30">
	<path opacity="0.6" fill="#E8E8E8" enable-background="new    " d="M306.865,16.32C138.9,16.32,2.736,146.083,2.736,306.16
		C2.736,466.234,138.9,596,306.865,596C474.834,596,611,466.234,611,306.16C610.997,146.083,474.834,16.32,306.865,16.32z
		 M307.584,521.188c-144.4,0-261.458-109.369-261.458-244.281c0-134.915,117.058-244.281,261.458-244.281
		c144.399,0,261.457,109.366,261.457,244.281C569.041,411.819,451.983,521.188,307.584,521.188z"/>
	
		<ellipse opacity="0.85" stroke="#000000" stroke-miterlimit="10" enable-background="new    " cx="307.584" cy="276.907" rx="261.457" ry="244.281"/>
	<polygon fill="#FFFFFF" points="488.695,163.736 426.289,236.066 386.021,202.287 403.006,185.302 272.85,156.293 305.484,284.541 
		328.577,260.495 369.418,300.572 272.277,412.598 217.124,107.055 	"/>
</g>
</svg>
