<?xml version="1.0" encoding="utf-8"?>
<!-- Generator: Adobe Illustrator 16.0.0, SVG Export Plug-In . SVG Version: 6.00 Build 0)  -->
<!DOCTYPE svg PUBLIC "-//W3C//DTD SVG 1.1//EN" "http://www.w3.org/Graphics/SVG/1.1/DTD/svg11.dtd">
<svg version="1.1" id="Layer_1" xmlns="http://www.w3.org/2000/svg" xmlns:xlink="http://www.w3.org/1999/xlink" x="0px" y="0px"
	 width="612px" height="612px" viewBox="0 90 612 612" enable-background="new 0 90 612 612" xml:space="preserve">
<g>
	<circle fill="#FFFFFF" cx="306" cy="396" r="172.143"/>
	<path fill="#B2001E" d="M476.508,225.492C431,179.984,370.443,154.922,306,154.922v86.447c41.329,0,80.174,16.072,109.367,45.264
		c29.192,29.192,45.264,68.038,45.264,109.367s-16.071,80.174-45.264,109.367C386.174,534.56,347.329,550.631,306,550.631v86.447
		c64.443,0,125-25.063,170.508-70.57s70.57-106.064,70.57-170.508S522.016,271,476.508,225.492z"/>
	<path fill="#006DF0" d="M374.184,396c0-37.599-30.585-68.184-68.184-68.184v136.367C343.599,464.184,374.184,433.599,374.184,396z"
		/>
	<path fill="#005DBA" d="M196.633,505.367c-29.192-29.193-45.264-68.038-45.264-109.367s16.072-80.174,45.264-109.367
		S264.671,241.369,306,241.369v-86.447c-64.443,0-125,25.063-170.508,70.57C89.984,271,64.922,331.557,64.922,396
		s25.063,125,70.57,170.508C181,612.016,241.557,637.078,306,637.078v-86.447C264.671,550.631,225.826,534.56,196.633,505.367z"/>
	<path fill="#FFFFFF" d="M151.369,396c0,41.329,16.072,80.174,45.264,109.367c29.192,29.192,68.038,45.264,109.367,45.264v-86.447
		c-37.599,0-68.184-30.585-68.184-68.184s30.585-68.184,68.184-68.184v-86.447c-41.329,0-80.174,16.072-109.367,45.264
		S151.369,354.671,151.369,396z"/>
	<path fill="#FF001F" d="M237.816,396c0,37.599,30.585,68.184,68.184,68.184V327.816C268.401,327.816,237.816,358.401,237.816,396z"
		/>
</g>
</svg>
