<?xml version="1.0" encoding="utf-8"?>
<!-- Generator: Adobe Illustrator 16.0.0, SVG Export Plug-In . SVG Version: 6.00 Build 0)  -->
<!DOCTYPE svg PUBLIC "-//W3C//DTD SVG 1.1//EN" "http://www.w3.org/Graphics/SVG/1.1/DTD/svg11.dtd">
<svg version="1.1" id="Capa_1_1_" xmlns="http://www.w3.org/2000/svg" xmlns:xlink="http://www.w3.org/1999/xlink" x="0px" y="0px"
	 width="612px" height="612px" viewBox="0 0 612 612" enable-background="new 0 0 612 612" xml:space="preserve">
<g id="_x39_h_xA0_Image_1_">
	<path opacity="0.6" fill="#E8E8E8" enable-background="new    " d="M306.279,19.142c-167.728,0-303.699,129.58-303.699,289.43
		C2.58,468.419,138.551,598,306.279,598c167.73,0,303.704-129.581,303.704-289.429C609.979,148.721,474.009,19.142,306.279,19.142z
		 M306.996,523.295c-144.195,0-261.087-109.214-261.087-243.935c0-134.725,116.892-243.936,261.087-243.936
		c144.194,0,261.087,109.211,261.087,243.936C568.083,414.081,451.19,523.295,306.996,523.295z"/>
	<ellipse opacity="0.85" enable-background="new    " cx="306.996" cy="279.36" rx="261.087" ry="243.935"/>
	<polygon fill="#FFFFFF" points="180.183,229.072 231.91,229.43 228.289,258.016 355.783,191.124 241.629,135.476 239.151,156.821 
		193.968,156.998 208.278,82.18 450.689,190.426 154.917,361.181 	"/>
</g>
</svg>
