<?xml version="1.0" encoding="utf-8"?>
<!-- Generator: Adobe Illustrator 16.0.0, SVG Export Plug-In . SVG Version: 6.00 Build 0)  -->
<!DOCTYPE svg PUBLIC "-//W3C//DTD SVG 1.1//EN" "http://www.w3.org/Graphics/SVG/1.1/DTD/svg11.dtd">
<svg version="1.1" id="Layer_1" xmlns="http://www.w3.org/2000/svg" xmlns:xlink="http://www.w3.org/1999/xlink" x="0px" y="0px"
	 width="612px" height="1256.5px" viewBox="0 0 612 1256.5" enable-background="new 0 0 612 1256.5" xml:space="preserve">
<g>
	<path fill="#FFFFFF" stroke="#000000" stroke-width="2" stroke-miterlimit="10" d="M564.422,350.18
		c0-142.723-115.7-258.422-258.422-258.422c-142.723,0-258.422,115.699-258.422,258.422c0,130.796,97.178,238.88,223.27,256.032
		L306,1158.82l0,0l35.153-552.608C467.243,589.06,564.422,480.976,564.422,350.18z"/>
	<circle fill="#FFFFFF" cx="306" cy="350.18" r="177.499"/>
	<path fill="#B2001E" d="M481.814,174.366C434.89,127.442,372.449,101.6,306,101.6v89.138c42.615,0,82.669,16.572,112.771,46.673
		s46.673,70.155,46.673,112.77s-16.571,82.668-46.673,112.77c-30.103,30.102-70.155,46.673-112.771,46.673v89.137
		c66.449,0,128.89-25.843,175.814-72.766c46.923-46.925,72.766-109.366,72.766-175.815
		C554.58,283.731,528.737,221.29,481.814,174.366z"/>
	<path fill="#006DF0" d="M376.307,350.18c0-38.769-31.538-70.306-70.307-70.306v140.611
		C344.769,420.486,376.307,388.948,376.307,350.18z"/>
	<path fill="#005DBA" d="M193.23,462.95c-30.101-30.103-46.673-70.155-46.673-112.771s16.572-82.669,46.673-112.77
		s70.155-46.673,112.77-46.673V101.6c-66.449,0-128.89,25.843-175.813,72.767C83.263,221.29,57.419,283.731,57.419,350.18
		c0,66.449,25.843,128.89,72.768,175.815C177.11,572.917,239.551,598.76,306,598.76v-89.138
		C263.385,509.622,223.331,493.051,193.23,462.95z"/>
	<path fill="#FFFFFF" d="M146.557,350.18c0,42.615,16.572,82.669,46.673,112.771s70.155,46.672,112.77,46.672v-89.136
		c-38.769,0-70.306-31.538-70.306-70.307c0-38.769,31.537-70.306,70.306-70.306v-89.136c-42.615,0-82.669,16.572-112.77,46.673
		S146.557,307.564,146.557,350.18z"/>
	<path fill="#FF001F" d="M235.694,350.18c0,38.769,31.537,70.307,70.306,70.307V279.874
		C267.231,279.874,235.694,311.411,235.694,350.18z"/>
</g>
<polygon fill="#FF0000" points="287.073,841.74 306,1139.284 324.928,841.74 "/>
</svg>
