<?xml version="1.0" encoding="utf-8"?>
<!-- Generator: Adobe Illustrator 16.0.0, SVG Export Plug-In . SVG Version: 6.00 Build 0)  -->
<!DOCTYPE svg PUBLIC "-//W3C//DTD SVG 1.1//EN" "http://www.w3.org/Graphics/SVG/1.1/DTD/svg11.dtd">
<svg version="1.1" id="Capa_1_1_" xmlns="http://www.w3.org/2000/svg" xmlns:xlink="http://www.w3.org/1999/xlink" x="0px" y="0px"
	 width="612px" height="612px" viewBox="0 0 612 612" enable-background="new 0 0 612 612" xml:space="preserve">
<g id="_x34_h30">
	<path opacity="0.6" fill="#E8E8E8" enable-background="new    " d="M305.279,15.32C136.733,15.32,0.1,145.531,0.1,306.16
		C0.1,466.787,136.733,597,305.279,597c168.547,0,305.184-130.213,305.184-290.84C610.46,145.531,473.826,15.32,305.279,15.32z
		 M306,521.931c-144.898,0-262.36-109.746-262.36-245.124C43.64,141.426,161.102,31.682,306,31.682s262.36,109.744,262.36,245.125
		C568.359,412.185,450.897,521.931,306,521.931z"/>
	
		<ellipse opacity="0.85" stroke="#000000" stroke-miterlimit="10" enable-background="new    " cx="306" cy="276.806" rx="262.36" ry="245.124"/>
	<polygon fill="#FFFFFF" points="434.115,123.412 361.535,186.034 395.432,226.441 412.476,209.397 441.584,340.003 
		312.894,307.256 337.022,284.084 296.807,243.102 184.395,340.577 490.991,395.922 	"/>
</g>
</svg>
