<?xml version="1.0" encoding="utf-8"?>
<!-- Generator: Adobe Illustrator 16.0.0, SVG Export Plug-In . SVG Version: 6.00 Build 0)  -->
<!DOCTYPE svg PUBLIC "-//W3C//DTD SVG 1.1//EN" "http://www.w3.org/Graphics/SVG/1.1/DTD/svg11.dtd">
<svg version="1.1" id="Capa_1_1_" xmlns="http://www.w3.org/2000/svg" xmlns:xlink="http://www.w3.org/1999/xlink" x="0px" y="0px"
	 width="612px" height="612px" viewBox="0 0 612 612" enable-background="new 0 0 612 612" xml:space="preserve">
<g id="_x39_h_xA0_Image_1_">
	<path opacity="0.6" fill="#E8E8E8" enable-background="new    " d="M307.865,22.32C139.9,22.32,3.736,152.083,3.736,312.16
		C3.736,472.234,139.9,602,307.865,602C475.834,602,612,472.234,612,312.16C611.997,152.083,475.834,22.32,307.865,22.32z
		 M308.584,527.188c-144.4,0-261.458-109.369-261.458-244.281c0-134.915,117.058-244.281,261.458-244.281
		c144.399,0,261.457,109.366,261.457,244.281C570.041,417.819,452.983,527.188,308.584,527.188z"/>
	<ellipse opacity="0.85" enable-background="new    " cx="308.584" cy="282.907" rx="261.457" ry="244.281"/>
	<polygon fill="#FFFFFF" points="427.179,232.548 375.38,232.906 379.006,261.532 251.331,194.546 365.646,138.819 368.128,160.194 
		413.374,160.372 399.044,85.447 156.29,193.847 452.48,364.844 	"/>
</g>
</svg>
