<?xml version="1.0" encoding="utf-8"?>
<!-- Generator: Adobe Illustrator 16.0.0, SVG Export Plug-In . SVG Version: 6.00 Build 0)  -->
<!DOCTYPE svg PUBLIC "-//W3C//DTD SVG 1.1//EN" "http://www.w3.org/Graphics/SVG/1.1/DTD/svg11.dtd">
<svg version="1.1" id="Capa_1" xmlns="http://www.w3.org/2000/svg" xmlns:xlink="http://www.w3.org/1999/xlink" x="0px" y="0px"
	 width="339.176px" height="339.176px" viewBox="0 0 339.176 339.176" enable-background="new 0 0 339.176 339.176"
	 xml:space="preserve">
<path fill="#FFFFFF" d="M229.803,169.589l65.086-65.086c4.135-4.13,6.199-9.148,6.199-15.054c0-5.904-2.07-10.921-6.199-15.053
	l-30.105-30.11c-4.133-4.131-9.149-6.198-15.053-6.198c-5.905,0-10.922,2.066-15.056,6.198l-65.086,65.086l-65.087-65.086
	c-4.13-4.131-9.147-6.198-15.054-6.198c-5.902,0-10.92,2.066-15.054,6.198l-30.108,30.11c-4.131,4.129-6.199,9.149-6.199,15.053
	c0,5.906,2.066,10.921,6.199,15.054l65.085,65.086l-65.085,65.087c-4.131,4.133-6.199,9.148-6.199,15.057
	c0,5.9,2.066,10.918,6.199,15.051l30.109,30.107c4.132,4.135,9.152,6.197,15.053,6.197c5.906,0,10.921-2.068,15.054-6.197
	l65.087-65.088l65.093,65.088c4.131,4.135,9.145,6.197,15.055,6.197c5.902,0,10.92-2.068,15.052-6.197l30.101-30.107
	c4.135-4.128,6.199-9.149,6.199-15.051c0-5.907-2.064-10.924-6.199-15.057L229.803,169.589z"/>
</svg>
