<?xml version="1.0" encoding="utf-8"?>
<!-- Generator: Adobe Illustrator 16.0.0, SVG Export Plug-In . SVG Version: 6.00 Build 0)  -->
<!DOCTYPE svg PUBLIC "-//W3C//DTD SVG 1.1//EN" "http://www.w3.org/Graphics/SVG/1.1/DTD/svg11.dtd">
<svg version="1.1" id="Layer_1" xmlns="http://www.w3.org/2000/svg" xmlns:xlink="http://www.w3.org/1999/xlink" x="0px" y="0px"
	 width="612px" height="433.067px" viewBox="0 179.467 612 433.067" enable-background="new 0 179.467 612 433.067"
	 xml:space="preserve">
<circle fill="#FFFFFF" stroke="#000000" stroke-miterlimit="10" cx="292" cy="396.001" r="136.5"/>
<path fill="#F61C0D" d="M455.125,215.501h-298.25c-58.516,0-105.952,47.437-105.952,105.953v149.094
	c0,58.515,47.437,105.952,105.952,105.952h298.25c58.516,0,105.952-47.438,105.952-105.952V321.454
	C561.077,262.938,513.641,215.501,455.125,215.501z M383.47,403.255l-139.501,66.533c-3.717,1.772-8.011-0.938-8.011-5.056V327.507
	c0-4.177,4.406-6.883,8.131-4.996l139.5,70.692C387.738,395.306,387.666,401.254,383.47,403.255z"/>
</svg>
