<?xml version="1.0" encoding="utf-8"?>
<!-- Generator: Adobe Illustrator 16.0.0, SVG Export Plug-In . SVG Version: 6.00 Build 0)  -->
<!DOCTYPE svg PUBLIC "-//W3C//DTD SVG 1.1//EN" "http://www.w3.org/Graphics/SVG/1.1/DTD/svg11.dtd">
<svg version="1.1" id="Layer_1" xmlns="http://www.w3.org/2000/svg" xmlns:xlink="http://www.w3.org/1999/xlink" x="0px" y="0px"
	 width="612px" height="433.067px" viewBox="0 0 612 433.067" enable-background="new 0 0 612 433.067" xml:space="preserve">
<circle fill="#FFFFFF" cx="295.5" cy="213.034" r="140"/>
<path fill="#F61C0D" d="M484.896,0H127.104C56.907,0,0,56.907,0,127.105v178.858c0,70.197,56.907,127.104,127.104,127.104h357.791
	c70.199,0,127.105-56.906,127.105-127.104V127.105C612,56.907,555.094,0,484.896,0z M398.936,225.237l-167.351,79.814
	c-4.459,2.127-9.61-1.125-9.61-6.064V134.366c0-5.01,5.286-8.256,9.755-5.992l167.35,84.805
	C404.056,215.7,403.97,222.836,398.936,225.237z"/>
</svg>
