<?xml version="1.0" encoding="utf-8"?>
<!-- Generator: Adobe Illustrator 16.0.0, SVG Export Plug-In . SVG Version: 6.00 Build 0)  -->
<!DOCTYPE svg PUBLIC "-//W3C//DTD SVG 1.1//EN" "http://www.w3.org/Graphics/SVG/1.1/DTD/svg11.dtd">
<svg version="1.1" id="Capa_1" xmlns="http://www.w3.org/2000/svg" xmlns:xlink="http://www.w3.org/1999/xlink" x="0px" y="0px"
	 width="438.533px" height="438.533px" viewBox="0 0 438.533 438.533" enable-background="new 0 0 438.533 438.533"
	 xml:space="preserve">
<g>
	<circle fill="#FFFFFF" stroke="#000000" stroke-miterlimit="10" cx="220.495" cy="218.585" r="175.88"/>
	<path d="M393.975,119.651c-17.867-30.612-42.105-54.85-72.719-72.717c-30.618-17.868-64.043-26.799-100.299-26.799
		c-36.251,0-69.686,8.932-100.3,26.799c-30.614,17.865-54.852,42.103-72.72,72.717c-17.87,30.616-26.801,64.051-26.801,100.301
		s8.934,69.678,26.798,100.297c17.868,30.611,42.104,54.849,72.72,72.719c30.616,17.867,64.048,26.799,100.3,26.799
		c36.25,0,69.687-8.932,100.301-26.799c30.613-17.863,54.852-42.107,72.716-72.719c17.865-30.614,26.795-64.049,26.795-100.297
		C420.767,183.699,411.835,150.263,393.975,119.651z M187.652,70.086c0-2.43,0.779-4.423,2.342-5.982
		c1.561-1.56,3.558-2.343,5.984-2.343h49.958c2.425,0,4.423,0.783,5.977,2.343c1.561,1.56,2.345,3.553,2.345,5.982v41.629
		c0,2.429-0.784,4.424-2.345,5.981c-1.554,1.561-3.552,2.341-5.977,2.341h-49.958c-2.427,0-4.424-0.78-5.984-2.341
		c-1.563-1.557-2.342-3.554-2.342-5.981V70.086L187.652,70.086z M287.56,344.837c0,2.426-0.785,4.422-2.341,5.979
		c-1.552,1.563-3.551,2.342-5.98,2.342H162.674c-2.431,0-4.423-0.779-5.984-2.342c-1.561-1.557-2.34-3.553-2.34-5.982v-41.629
		c0-2.433,0.779-4.424,2.34-5.983c1.562-1.558,3.556-2.342,5.984-2.342h24.978v-83.255h-24.978c-2.431,0-4.422-0.779-5.984-2.34
		c-1.561-1.56-2.34-3.555-2.34-5.985v-41.627c0-2.429,0.779-4.422,2.34-5.984c1.563-1.561,3.558-2.339,5.984-2.339h83.263
		c2.425,0,4.423,0.778,5.977,2.339c1.561,1.563,2.345,3.555,2.345,5.984v133.211h24.972c2.432,0,4.428,0.779,5.988,2.339
		c1.552,1.561,2.338,3.557,2.338,5.984v41.63L287.56,344.837L287.56,344.837z"/>
</g>
</svg>
