<?xml version="1.0" encoding="utf-8"?>
<!-- Generator: Adobe Illustrator 16.0.0, SVG Export Plug-In . SVG Version: 6.00 Build 0)  -->
<!DOCTYPE svg PUBLIC "-//W3C//DTD SVG 1.1//EN" "http://www.w3.org/Graphics/SVG/1.1/DTD/svg11.dtd">
<svg version="1.1" id="Capa_1" xmlns="http://www.w3.org/2000/svg" xmlns:xlink="http://www.w3.org/1999/xlink" x="0px" y="0px"
	 width="438.533px" height="438.533px" viewBox="0 0 438.533 438.533" enable-background="new 0 0 438.533 438.533"
	 xml:space="preserve">
<g>
	<circle fill="#FFFFFF" stroke="#000000" stroke-miterlimit="10" cx="218.767" cy="217.767" r="193"/>
	<path d="M409.133,109.203c-19.607-33.592-46.205-60.189-79.798-79.796C295.735,9.801,259.058,0,219.273,0
		c-39.781,0-76.47,9.801-110.063,29.407c-33.595,19.604-60.192,46.201-79.8,79.796C9.801,142.8,0,179.489,0,219.267
		c0,39.78,9.804,76.462,29.407,110.062c19.607,33.592,46.204,60.189,79.799,79.798c33.597,19.605,70.283,29.407,110.063,29.407
		c39.78,0,76.47-9.802,110.065-29.407c33.593-19.603,60.189-46.206,79.795-79.798c19.604-33.596,29.403-70.284,29.403-110.062
		C438.533,179.485,428.732,142.795,409.133,109.203z M182.727,54.813c0-2.666,0.855-4.853,2.57-6.565
		c1.712-1.711,3.903-2.57,6.567-2.57h54.82c2.662,0,4.853,0.859,6.561,2.57c1.711,1.712,2.572,3.899,2.572,6.565v45.682
		c0,2.664-0.861,4.854-2.572,6.564c-1.708,1.712-3.898,2.568-6.561,2.568h-54.82c-2.664,0-4.854-0.856-6.567-2.568
		c-1.715-1.709-2.57-3.9-2.57-6.564V54.813z M292.358,356.31c0,2.662-0.862,4.853-2.569,6.561c-1.704,1.714-3.896,2.57-6.563,2.57
		H155.317c-2.667,0-4.854-0.856-6.567-2.57c-1.712-1.708-2.568-3.898-2.568-6.564v-45.682c0-2.67,0.856-4.854,2.568-6.566
		c1.713-1.709,3.903-2.57,6.567-2.57h27.41v-91.358h-27.41c-2.667,0-4.853-0.855-6.567-2.568c-1.712-1.711-2.568-3.901-2.568-6.567
		v-45.679c0-2.666,0.856-4.853,2.568-6.567c1.715-1.713,3.905-2.568,6.567-2.568h91.368c2.662,0,4.853,0.855,6.561,2.568
		c1.711,1.714,2.572,3.901,2.572,6.567v146.179h27.401c2.669,0,4.859,0.854,6.57,2.565c1.704,1.713,2.565,3.901,2.565,6.567v45.683
		H292.358L292.358,356.31z"/>
</g>
</svg>
