<?xml version="1.0" encoding="utf-8"?>
<!-- Generator: Adobe Illustrator 16.0.0, SVG Export Plug-In . SVG Version: 6.00 Build 0)  -->
<!DOCTYPE svg PUBLIC "-//W3C//DTD SVG 1.1//EN" "http://www.w3.org/Graphics/SVG/1.1/DTD/svg11.dtd">
<svg version="1.1" id="Layer_1" xmlns="http://www.w3.org/2000/svg" xmlns:xlink="http://www.w3.org/1999/xlink" x="0px" y="0px"
	 width="512px" height="512px" viewBox="0 0 512 512" enable-background="new 0 0 512 512" xml:space="preserve">
<rect x="88.5" y="104.5" fill="#FFFFFF" stroke="#000000" stroke-miterlimit="10" width="317" height="314"/>
<path d="M453.332,0H58.668C26.305,0,0,26.305,0,58.668v394.664C0,485.695,26.305,512,58.668,512h394.664
	C485.695,512,512,485.695,512,453.332V58.668C512,26.305,485.695,0,453.332,0z M341.332,362.668H170.668
	c-11.797,0-21.336-9.559-21.336-21.336c0-11.773,9.539-21.332,21.336-21.332h170.664c11.797,0,21.336,9.559,21.336,21.332
	C362.668,353.109,353.129,362.668,341.332,362.668z M341.332,277.332H170.668c-11.797,0-21.336-9.555-21.336-21.332
	s9.539-21.332,21.336-21.332h170.664c11.797,0,21.336,9.555,21.336,21.332S353.129,277.332,341.332,277.332z M341.332,192H170.668
	c-11.797,0-21.336-9.559-21.336-21.332c0-11.777,9.539-21.336,21.336-21.336h170.664c11.797,0,21.336,9.559,21.336,21.336
	C362.668,182.441,353.129,192,341.332,192z"/>
</svg>
