<?xml version="1.0" encoding="utf-8"?>
<!-- Generator: Adobe Illustrator 16.0.0, SVG Export Plug-In . SVG Version: 6.00 Build 0)  -->
<!DOCTYPE svg PUBLIC "-//W3C//DTD SVG 1.1//EN" "http://www.w3.org/Graphics/SVG/1.1/DTD/svg11.dtd">
<svg version="1.1" id="OBJECTS" xmlns="http://www.w3.org/2000/svg" xmlns:xlink="http://www.w3.org/1999/xlink" x="0px" y="0px"
	 width="864.665px" height="232px" viewBox="49.618 0 864.665 232" enable-background="new 49.618 0 864.665 232"
	 xml:space="preserve">
<g opacity="0.5">
	<polygon stroke="#727176" stroke-width="0.25" stroke-miterlimit="10" points="310.867,7.502 344.615,60.794 310.867,114.087 
		243.37,114.087 209.622,60.794 243.37,7.502 	"/>
	<polygon stroke="#727176" stroke-width="0.25" stroke-miterlimit="10" points="310.867,117.247 344.615,170.54 310.867,223.831 
		243.37,223.831 209.622,170.54 243.37,117.247 	"/>
	<polygon opacity="0.7" fill="#606060" stroke="#727176" stroke-width="0.25" stroke-miterlimit="10" points="208.525,62.256 
		208.296,62.256 189.951,62.256 189.722,62.256 155.974,115.548 189.722,168.841 189.951,168.841 208.296,168.841 208.525,168.841 
		242.273,115.548 	"/>
</g>
<g opacity="0.5">
	<polygon stroke="#727176" stroke-width="0.25" stroke-miterlimit="10" points="721.534,7.502 755.282,60.794 721.534,114.087 
		654.036,114.087 620.288,60.794 654.036,7.502 	"/>
	<polygon stroke="#727176" stroke-width="0.25" stroke-miterlimit="10" points="721.534,117.247 755.282,170.54 721.534,223.831 
		654.036,223.831 620.288,170.54 654.036,117.247 	"/>
	<polygon opacity="0.7" fill="#606060" stroke="#727176" stroke-width="0.25" stroke-miterlimit="10" points="775.025,62.256 
		774.796,62.256 756.451,62.256 756.222,62.256 722.474,115.548 756.222,168.841 756.451,168.841 774.796,168.841 775.025,168.841 
		808.773,115.548 	"/>
</g>
<g opacity="0.5">
	<polygon stroke="#727176" stroke-width="0.25" stroke-miterlimit="10" points="877.534,7.502 911.282,60.794 877.534,114.087 
		810.036,114.087 776.288,60.794 810.036,7.502 	"/>
	<polygon stroke="#727176" stroke-width="0.25" stroke-miterlimit="10" points="877.534,117.247 911.282,170.54 877.534,223.831 
		810.036,223.831 776.288,170.54 810.036,117.247 	"/>
</g>
<g opacity="0.5">
	<polygon stroke="#727176" stroke-width="0.25" stroke-miterlimit="10" points="154.534,7.502 188.281,60.794 154.534,114.087 
		87.036,114.087 53.288,60.794 87.036,7.502 	"/>
	<polygon stroke="#727176" stroke-width="0.25" stroke-miterlimit="10" points="154.534,117.247 188.281,170.54 154.534,223.831 
		87.036,223.831 53.288,170.54 87.036,117.247 	"/>
</g>
<g opacity="0.65">
	<polygon stroke="#727176" stroke-width="0.25" stroke-miterlimit="10" points="516.2,8.168 549.948,61.46 516.2,114.753 
		448.702,114.753 414.954,61.46 448.702,8.168 	"/>
	<polygon stroke="#727176" stroke-width="0.25" stroke-miterlimit="10" points="516.2,117.913 549.948,171.206 516.2,224.497 
		448.702,224.497 414.954,171.206 448.702,117.913 	"/>
	<polygon stroke="#727176" stroke-width="0.25" stroke-miterlimit="10" points="413.526,62.142 447.274,115.434 413.526,168.725 
		346.027,168.725 312.279,115.434 346.027,62.142 	"/>
	<polygon stroke="#727176" stroke-width="0.25" stroke-miterlimit="10" points="619.192,62.256 652.94,115.548 619.192,168.841 
		551.694,168.841 517.948,115.548 551.694,62.256 	"/>
</g>
</svg>
