<?xml version="1.0" encoding="utf-8"?>
<!-- Generator: Adobe Illustrator 16.0.0, SVG Export Plug-In . SVG Version: 6.00 Build 0)  -->
<!DOCTYPE svg PUBLIC "-//W3C//DTD SVG 1.1//EN" "http://www.w3.org/Graphics/SVG/1.1/DTD/svg11.dtd">
<svg version="1.1" id="OBJECTS" xmlns="http://www.w3.org/2000/svg" xmlns:xlink="http://www.w3.org/1999/xlink" x="0px" y="0px"
	 width="88.656px" height="88.563px" viewBox="0.298 0.316 88.656 88.563" enable-background="new 0.298 0.316 88.656 88.563"
	 xml:space="preserve">
<g>
	<circle fill="#FFFFFF" stroke="#000000" stroke-miterlimit="10" cx="44.673" cy="45.221" r="38.61"/>
	<path stroke="#000000" stroke-miterlimit="10" d="M78.888,17.684L78.888,17.684c0.001-0.001-3.816-5.063-8.041-7.891
		c-0.006-0.004-0.013-0.008-0.02-0.014C63.308,4.09,54.194,1,44.6,1C32.954,1,22.005,5.535,13.771,13.771
		C5.536,22.004,1,32.955,1,44.599c0,9.932,3.311,19.35,9.392,27.016c0.004,0.006,0.008,0.012,0.01,0.02
		c1.395,2.15,4.586,4.99,5.948,6.156l-0.002,0.002c0.05,0.043,0.099,0.082,0.146,0.123c0.308,0.262,0.492,0.412,0.492,0.412h0.002
		c7.771,6.385,17.422,9.869,27.61,9.869c11.646,0,22.595-4.535,30.828-12.77s12.771-19.186,12.771-30.829
		C88.198,34.711,84.918,25.332,78.888,17.684z M62.04,72.054c0,2.492-2.026,4.516-4.516,4.516c-0.795,0-1.584-0.217-2.283-0.627
		c-0.092-0.053-0.174-0.117-0.252-0.189L36.036,58.109l-0.006,0.004c-0.84-0.707-1.295-0.434-1.295-0.434H26.56h-3.081h-0.526
		c-2.487,0-4.51-2.025-4.51-4.513v-18.59c0-2.486,2.022-4.512,4.51-4.512h12.097c0.241,0,0.479-0.054,0.696-0.158L54.989,11.99
		c0.078-0.072,0.162-0.137,0.252-0.188c0.699-0.412,1.488-0.63,2.283-0.63c2.489,0,4.516,2.027,4.516,4.516v6.51l0.001-0.002v9.908
		l0,0L62.04,72.054L62.04,72.054z"/>
</g>
</svg>
