<?xml version="1.0" encoding="utf-8"?>
<!-- Generator: Adobe Illustrator 16.0.0, SVG Export Plug-In . SVG Version: 6.00 Build 0)  -->
<!DOCTYPE svg PUBLIC "-//W3C//DTD SVG 1.1//EN" "http://www.w3.org/Graphics/SVG/1.1/DTD/svg11.dtd">
<svg version="1.1" id="OBJECTS" xmlns="http://www.w3.org/2000/svg" xmlns:xlink="http://www.w3.org/1999/xlink" x="0px" y="0px"
	 width="88.656px" height="88.563px" viewBox="0.298 0.316 88.656 88.563" enable-background="new 0.298 0.316 88.656 88.563"
	 xml:space="preserve">
<g>
	<circle fill="#FFFFFF" stroke="#000000" stroke-miterlimit="10" cx="44.66" cy="45.116" r="32.079"/>
	<path stroke="#000000" stroke-miterlimit="10" d="M73.087,22.236L73.087,22.236c0.001-0.001-3.171-4.206-6.681-6.556
		c-0.005-0.003-0.01-0.006-0.016-0.012C60.143,10.942,52.571,8.375,44.6,8.375c-9.676,0-18.773,3.768-25.614,10.61
		c-6.842,6.841-10.61,15.939-10.61,25.613c0,8.252,2.75,16.077,7.803,22.447c0.003,0.005,0.007,0.01,0.008,0.016
		c1.159,1.786,3.81,4.146,4.942,5.115l-0.001,0.001c0.042,0.036,0.082,0.068,0.121,0.103c0.256,0.218,0.409,0.343,0.409,0.343h0.001
		c6.457,5.305,14.475,8.199,22.94,8.199c9.675,0,18.772-3.769,25.613-10.609s10.61-15.94,10.61-25.614
		C80.823,36.383,78.098,28.591,73.087,22.236z M59.089,67.41c0,2.071-1.684,3.752-3.751,3.752c-0.661,0-1.316-0.181-1.897-0.521
		c-0.077-0.044-0.145-0.098-0.209-0.157L37.484,55.823l-0.005,0.004c-0.698-0.587-1.076-0.36-1.076-0.36h-6.792h-2.56h-0.437
		c-2.066,0-3.747-1.683-3.747-3.75V36.271c0-2.066,1.681-3.749,3.747-3.749h10.05c0.201,0,0.398-0.044,0.579-0.131l15.989-14.885
		c0.065-0.06,0.135-0.114,0.209-0.157c0.581-0.342,1.236-0.523,1.897-0.523c2.068,0,3.751,1.685,3.751,3.751v5.409l0.001-0.001
		v8.232l0,0L59.089,67.41L59.089,67.41z"/>
</g>
</svg>
