<?xml version="1.0" encoding="utf-8"?>
<!-- Garden Gnome Software - Skin Buttons -->
<!DOCTYPE svg PUBLIC "-//W3C//DTD SVG 1.1 Basic//EN" "http://www.w3.org/Graphics/SVG/1.1/DTD/svg11-basic.dtd">
<svg version="1.1" baseProfile="basic" id="Layer_1" xmlns="http://www.w3.org/2000/svg" xmlns:xlink="http://www.w3.org/1999/xlink"
			x="0px" y="0px" width="32px" height="32px" viewBox="0 0 32 32" xml:space="preserve">
	<g opacity="0.4" stroke="#3C3C3C" stroke-width="1.5" transform="translate(16,16) scale(1.1) translate(-16,-16)">
		<path d="M23.671,15.101h-4.606c-0.515,0-0.931,0.417-0.931,0.93s0.416,0.931,0.931,0.931h4.606
			c0.514,0,0.931-0.417,0.931-0.931S24.185,15.101,23.671,15.101z M16.031,8.917c-0.443-0.187-0.958-0.088-1.301,0.248l-3.102,3.037
			l-2.239,0c-0.315,0-0.623,0.127-0.846,0.35c-0.223,0.223-0.351,0.531-0.351,0.846v5.296c0,0.315,0.127,0.623,0.351,0.847
			c0.223,0.222,0.531,0.35,0.846,0.35h2.238l3.103,3.038c0.228,0.223,0.531,0.341,0.839,0.341c0.156,0,0.313-0.03,0.462-0.093
			c0.442-0.187,0.733-0.623,0.733-1.104V10.019C16.764,9.54,16.474,9.102,16.031,8.917z M14.371,19.228l-1.418-1.388
			c-0.225-0.221-0.522-0.342-0.837-0.342h-1.53v-2.905l1.531,0c0.315,0,0.612-0.121,0.837-0.341l1.417-1.388V19.228z M16,3.5
			C9.096,3.5,3.5,9.096,3.5,16c0,6.904,5.596,12.499,12.5,12.5c6.903-0.001,12.499-5.596,12.5-12.5C28.499,9.096,22.903,3.5,16,3.5z
			 M23.147,23.147c-1.833,1.83-4.353,2.959-7.147,2.96c-2.795-0.001-5.314-1.13-7.146-2.96C7.022,21.314,5.894,18.795,5.893,16
			c0.001-2.795,1.129-5.314,2.961-7.147c1.833-1.831,4.352-2.96,7.146-2.96c2.795,0,5.313,1.129,7.147,2.96
			c1.831,1.833,2.959,4.352,2.96,7.147C26.106,18.795,24.979,21.314,23.147,23.147z"/>
	</g>
	<g fill="#FFFFFF" stroke="#000000" stroke-width="0.2" transform="translate(16,16) scale(1.1) translate(-16,-16)">
		<path d="M23.671,15.101h-4.606c-0.515,0-0.931,0.417-0.931,0.93s0.416,0.931,0.931,0.931h4.606
			c0.514,0,0.931-0.417,0.931-0.931S24.185,15.101,23.671,15.101z M16.031,8.917c-0.443-0.187-0.958-0.088-1.301,0.248l-3.102,3.037
			l-2.239,0c-0.315,0-0.623,0.127-0.846,0.35c-0.223,0.223-0.351,0.531-0.351,0.846v5.296c0,0.315,0.127,0.623,0.351,0.847
			c0.223,0.222,0.531,0.35,0.846,0.35h2.238l3.103,3.038c0.228,0.223,0.531,0.341,0.839,0.341c0.156,0,0.313-0.03,0.462-0.093
			c0.442-0.187,0.733-0.623,0.733-1.104V10.019C16.764,9.54,16.474,9.102,16.031,8.917z M14.371,19.228l-1.418-1.388
			c-0.225-0.221-0.522-0.342-0.837-0.342h-1.53v-2.905l1.531,0c0.315,0,0.612-0.121,0.837-0.341l1.417-1.388V19.228z M16,3.5
			C9.096,3.5,3.5,9.096,3.5,16c0,6.904,5.596,12.499,12.5,12.5c6.903-0.001,12.499-5.596,12.5-12.5C28.499,9.096,22.903,3.5,16,3.5z
			 M23.147,23.147c-1.833,1.83-4.353,2.959-7.147,2.96c-2.795-0.001-5.314-1.13-7.146-2.96C7.022,21.314,5.894,18.795,5.893,16
			c0.001-2.795,1.129-5.314,2.961-7.147c1.833-1.831,4.352-2.96,7.146-2.96c2.795,0,5.313,1.129,7.147,2.96
			c1.831,1.833,2.959,4.352,2.96,7.147C26.106,18.795,24.979,21.314,23.147,23.147z"/>
	</g>
</svg>