<?xml version="1.0" encoding="utf-8"?>
<!-- Garden Gnome Software - Skin Buttons -->
<!DOCTYPE svg PUBLIC "-//W3C//DTD SVG 1.1 Basic//EN" "http://www.w3.org/Graphics/SVG/1.1/DTD/svg11-basic.dtd">
<svg version="1.1" baseProfile="basic" id="Layer_1" xmlns="http://www.w3.org/2000/svg" xmlns:xlink="http://www.w3.org/1999/xlink"
			x="0px" y="0px" width="32px" height="32px" viewBox="0 0 32 32" xml:space="preserve">
	<g opacity="0.4" stroke="#3C3C3C" stroke-width="1.5">
		<path d="M16.032,8.917c-0.443-0.186-0.957-0.088-1.301,0.248l-3.103,3.037l-2.238,0
			c-0.315,0-0.624,0.127-0.846,0.35c-0.223,0.223-0.351,0.531-0.351,0.846v5.297c0,0.314,0.128,0.623,0.351,0.847
			c0.223,0.222,0.531,0.35,0.846,0.35h2.238l3.103,3.038c0.228,0.222,0.531,0.341,0.838,0.341c0.156,0,0.313-0.031,0.462-0.094
			c0.442-0.186,0.733-0.622,0.733-1.103V10.019C16.765,9.539,16.474,9.102,16.032,8.917z M14.372,19.228l-1.418-1.388
			c-0.225-0.221-0.522-0.342-0.837-0.342h-1.531v-2.905l1.531,0c0.315,0,0.612-0.122,0.837-0.341l1.418-1.389V19.228z
			 M23.914,15.101h-1.616v-1.616c0-0.514-0.417-0.93-0.93-0.93c-0.515,0-0.932,0.416-0.932,0.93v1.616h-1.615
			c-0.514,0-0.93,0.416-0.93,0.93c0,0.514,0.416,0.93,0.93,0.93h1.615v1.616c0,0.514,0.417,0.931,0.932,0.931
			c0.513,0,0.93-0.417,0.93-0.931v-1.616h1.616c0.514,0,0.931-0.417,0.931-0.93C24.845,15.517,24.428,15.101,23.914,15.101z M16,3.5
			C9.096,3.5,3.5,9.096,3.5,16c0,6.904,5.596,12.499,12.5,12.5c6.903-0.001,12.499-5.596,12.5-12.5C28.499,9.096,22.903,3.5,16,3.5z
			 M23.147,23.147c-1.833,1.83-4.353,2.959-7.147,2.96c-2.795-0.001-5.314-1.13-7.146-2.96C7.022,21.314,5.894,18.795,5.893,16
			c0.001-2.795,1.129-5.314,2.961-7.147c1.833-1.831,4.352-2.96,7.146-2.96c2.795,0,5.313,1.129,7.147,2.96
			c1.831,1.833,2.959,4.352,2.96,7.147C26.106,18.795,24.979,21.314,23.147,23.147z"/>
	</g>
	<g fill="#FFFFFF" stroke="#000000" stroke-width="0.2">
		<path d="M16.032,8.917c-0.443-0.186-0.957-0.088-1.301,0.248l-3.103,3.037l-2.238,0
			c-0.315,0-0.624,0.127-0.846,0.35c-0.223,0.223-0.351,0.531-0.351,0.846v5.297c0,0.314,0.128,0.623,0.351,0.847
			c0.223,0.222,0.531,0.35,0.846,0.35h2.238l3.103,3.038c0.228,0.222,0.531,0.341,0.838,0.341c0.156,0,0.313-0.031,0.462-0.094
			c0.442-0.186,0.733-0.622,0.733-1.103V10.019C16.765,9.539,16.474,9.102,16.032,8.917z M14.372,19.228l-1.418-1.388
			c-0.225-0.221-0.522-0.342-0.837-0.342h-1.531v-2.905l1.531,0c0.315,0,0.612-0.122,0.837-0.341l1.418-1.389V19.228z
			 M23.914,15.101h-1.616v-1.616c0-0.514-0.417-0.93-0.93-0.93c-0.515,0-0.932,0.416-0.932,0.93v1.616h-1.615
			c-0.514,0-0.93,0.416-0.93,0.93c0,0.514,0.416,0.93,0.93,0.93h1.615v1.616c0,0.514,0.417,0.931,0.932,0.931
			c0.513,0,0.93-0.417,0.93-0.931v-1.616h1.616c0.514,0,0.931-0.417,0.931-0.93C24.845,15.517,24.428,15.101,23.914,15.101z M16,3.5
			C9.096,3.5,3.5,9.096,3.5,16c0,6.904,5.596,12.499,12.5,12.5c6.903-0.001,12.499-5.596,12.5-12.5C28.499,9.096,22.903,3.5,16,3.5z
			 M23.147,23.147c-1.833,1.83-4.353,2.959-7.147,2.96c-2.795-0.001-5.314-1.13-7.146-2.96C7.022,21.314,5.894,18.795,5.893,16
			c0.001-2.795,1.129-5.314,2.961-7.147c1.833-1.831,4.352-2.96,7.146-2.96c2.795,0,5.313,1.129,7.147,2.96
			c1.831,1.833,2.959,4.352,2.96,7.147C26.106,18.795,24.979,21.314,23.147,23.147z"/>
	</g>
</svg>